<mxfile host="app.diagrams.net" modified="2021-09-02T17:31:19.002Z" agent="5.0 (X11)" etag="2SB8Uu_rxu200G6Clh54" compressed="false" version="14.8.6" type="github">
  <diagram name="Page-1" id="2a216829-ef6e-dabb-86c1-c78162f3ba2b">
    <mxGraphModel dx="1247" dy="-1646" grid="1" gridSize="10" guides="1" tooltips="1" connect="1" arrows="1" fold="1" page="1" pageScale="1" pageWidth="1654" pageHeight="1169" background="none" math="0" shadow="0">
      <root>
        <mxCell id="0" />
        <mxCell id="1" parent="0" />
        <mxCell id="zMS48Avbv7I0cEuDU5D0-109" value="" style="swimlane;horizontal=0;rounded=1;swimlaneLine=1;" parent="1" vertex="1">
          <mxGeometry x="15" y="2390" width="1590" height="1063" as="geometry" />
        </mxCell>
        <mxCell id="zMS48Avbv7I0cEuDU5D0-132" style="edgeStyle=orthogonalEdgeStyle;rounded=0;orthogonalLoop=1;jettySize=auto;html=1;exitX=1;exitY=0.5;exitDx=0;exitDy=0;exitPerimeter=0;entryX=0;entryY=0.5;entryDx=0;entryDy=0;entryPerimeter=0;" parent="zMS48Avbv7I0cEuDU5D0-109" source="zMS48Avbv7I0cEuDU5D0-110" target="zMS48Avbv7I0cEuDU5D0-112" edge="1">
          <mxGeometry relative="1" as="geometry">
            <mxPoint x="191" y="69.5" as="targetPoint" />
          </mxGeometry>
        </mxCell>
        <mxCell id="zMS48Avbv7I0cEuDU5D0-110" value="" style="points=[[0.145,0.145,0],[0.5,0,0],[0.855,0.145,0],[1,0.5,0],[0.855,0.855,0],[0.5,1,0],[0.145,0.855,0],[0,0.5,0]];shape=mxgraph.bpmn.event;html=1;verticalLabelPosition=bottom;labelBackgroundColor=#ffffff;verticalAlign=top;align=center;perimeter=ellipsePerimeter;outlineConnect=0;aspect=fixed;outline=standard;symbol=general;rounded=1;strokeWidth=1;" parent="zMS48Avbv7I0cEuDU5D0-109" vertex="1">
          <mxGeometry x="61" y="44.5" width="50" height="50" as="geometry" />
        </mxCell>
        <mxCell id="zMS48Avbv7I0cEuDU5D0-134" style="edgeStyle=orthogonalEdgeStyle;rounded=0;orthogonalLoop=1;jettySize=auto;html=1;exitX=1;exitY=0.5;exitDx=0;exitDy=0;exitPerimeter=0;entryX=0;entryY=0.5;entryDx=0;entryDy=0;entryPerimeter=0;" parent="zMS48Avbv7I0cEuDU5D0-109" source="zMS48Avbv7I0cEuDU5D0-112" target="0Z8y53NUllSxboPvA691-3" edge="1">
          <mxGeometry relative="1" as="geometry">
            <mxPoint x="426" y="70" as="targetPoint" />
          </mxGeometry>
        </mxCell>
        <mxCell id="zMS48Avbv7I0cEuDU5D0-112" value="Site visited" style="points=[[0.25,0,0],[0.5,0,0],[0.75,0,0],[1,0.25,0],[1,0.5,0],[1,0.75,0],[0.75,1,0],[0.5,1,0],[0.25,1,0],[0,0.75,0],[0,0.5,0],[0,0.25,0]];shape=mxgraph.bpmn.task;whiteSpace=wrap;rectStyle=rounded;size=10;taskMarker=abstract;rounded=0;shadow=0;glass=0;strokeWidth=1;" parent="zMS48Avbv7I0cEuDU5D0-109" vertex="1">
          <mxGeometry x="211" y="30" width="120" height="80" as="geometry" />
        </mxCell>
        <mxCell id="0Z8y53NUllSxboPvA691-58" value="" style="edgeStyle=orthogonalEdgeStyle;rounded=0;orthogonalLoop=1;jettySize=auto;html=1;verticalAlign=bottom;labelPosition=left;verticalLabelPosition=top;align=right;" parent="zMS48Avbv7I0cEuDU5D0-109" source="zMS48Avbv7I0cEuDU5D0-115" target="0Z8y53NUllSxboPvA691-55" edge="1">
          <mxGeometry relative="1" as="geometry" />
        </mxCell>
        <mxCell id="zMS48Avbv7I0cEuDU5D0-115" value="Register as lead ?" style="points=[[0.25,0,0],[0.5,0,0],[0.75,0,0],[1,0.25,0],[1,0.5,0],[1,0.75,0],[0.75,1,0],[0.5,1,0],[0.25,1,0],[0,0.75,0],[0,0.5,0],[0,0.25,0]];shape=mxgraph.bpmn.task;whiteSpace=wrap;rectStyle=rounded;size=10;taskMarker=abstract;rounded=0;shadow=0;glass=0;strokeWidth=1;" parent="zMS48Avbv7I0cEuDU5D0-109" vertex="1">
          <mxGeometry x="481" y="30" width="120" height="80" as="geometry" />
        </mxCell>
        <mxCell id="zMS48Avbv7I0cEuDU5D0-127" value="" style="line;strokeWidth=1;html=1;rounded=0;shadow=0;glass=0;" parent="zMS48Avbv7I0cEuDU5D0-109" vertex="1">
          <mxGeometry x="23" y="450" width="1567" height="10" as="geometry" />
        </mxCell>
        <mxCell id="zMS48Avbv7I0cEuDU5D0-150" value="&lt;div&gt;Front End&lt;/div&gt;" style="text;html=1;resizable=0;autosize=1;align=center;verticalAlign=middle;points=[];fillColor=none;strokeColor=none;rounded=0;shadow=0;glass=0;rotation=270;strokeWidth=1;fontStyle=1" parent="zMS48Avbv7I0cEuDU5D0-109" vertex="1">
          <mxGeometry y="100" width="70" height="20" as="geometry" />
        </mxCell>
        <mxCell id="0Z8y53NUllSxboPvA691-45" value="" style="edgeStyle=orthogonalEdgeStyle;rounded=0;orthogonalLoop=1;jettySize=auto;html=1;" parent="zMS48Avbv7I0cEuDU5D0-109" source="0Z8y53NUllSxboPvA691-3" target="zMS48Avbv7I0cEuDU5D0-115" edge="1">
          <mxGeometry relative="1" as="geometry" />
        </mxCell>
        <mxCell id="0Z8y53NUllSxboPvA691-50" value="" style="edgeStyle=orthogonalEdgeStyle;rounded=0;orthogonalLoop=1;jettySize=auto;html=1;" parent="zMS48Avbv7I0cEuDU5D0-109" source="0Z8y53NUllSxboPvA691-3" target="0Z8y53NUllSxboPvA691-44" edge="1">
          <mxGeometry relative="1" as="geometry" />
        </mxCell>
        <mxCell id="0Z8y53NUllSxboPvA691-3" value="" style="points=[[0.25,0.25,0],[0.5,0,0],[0.75,0.25,0],[1,0.5,0],[0.75,0.75,0],[0.5,1,0],[0.25,0.75,0],[0,0.5,0]];shape=mxgraph.bpmn.gateway2;html=1;verticalLabelPosition=bottom;labelBackgroundColor=#ffffff;verticalAlign=top;align=center;perimeter=rhombusPerimeter;outlineConnect=0;outline=none;symbol=none;gwType=parallel;rounded=1;strokeWidth=1;" parent="zMS48Avbv7I0cEuDU5D0-109" vertex="1">
          <mxGeometry x="381" y="45" width="50" height="50" as="geometry" />
        </mxCell>
        <mxCell id="0Z8y53NUllSxboPvA691-79" value="" style="edgeStyle=orthogonalEdgeStyle;rounded=0;orthogonalLoop=1;jettySize=auto;html=1;dashed=1;entryX=0.5;entryY=0;entryDx=0;entryDy=0;entryPerimeter=0;" parent="zMS48Avbv7I0cEuDU5D0-109" source="0Z8y53NUllSxboPvA691-44" target="0Z8y53NUllSxboPvA691-75" edge="1">
          <mxGeometry relative="1" as="geometry">
            <mxPoint x="390" y="400" as="targetPoint" />
          </mxGeometry>
        </mxCell>
        <mxCell id="0Z8y53NUllSxboPvA691-44" value="Call endpoint to create products component" style="points=[[0.25,0,0],[0.5,0,0],[0.75,0,0],[1,0.25,0],[1,0.5,0],[1,0.75,0],[0.75,1,0],[0.5,1,0],[0.25,1,0],[0,0.75,0],[0,0.5,0],[0,0.25,0]];shape=mxgraph.bpmn.task;whiteSpace=wrap;rectStyle=rounded;size=10;taskMarker=abstract;rounded=0;shadow=0;glass=0;strokeWidth=1;" parent="zMS48Avbv7I0cEuDU5D0-109" vertex="1">
          <mxGeometry x="346" y="150" width="120" height="80" as="geometry" />
        </mxCell>
        <mxCell id="0Z8y53NUllSxboPvA691-52" value="No" style="edgeStyle=orthogonalEdgeStyle;rounded=0;orthogonalLoop=1;jettySize=auto;html=1;entryX=0;entryY=0.5;entryDx=0;entryDy=0;entryPerimeter=0;exitX=1;exitY=0.5;exitDx=0;exitDy=0;exitPerimeter=0;" parent="zMS48Avbv7I0cEuDU5D0-109" source="0Z8y53NUllSxboPvA691-55" target="0Z8y53NUllSxboPvA691-47" edge="1">
          <mxGeometry x="-0.5" y="-9" relative="1" as="geometry">
            <mxPoint x="1061" y="70" as="sourcePoint" />
            <mxPoint y="1" as="offset" />
          </mxGeometry>
        </mxCell>
        <mxCell id="0Z8y53NUllSxboPvA691-62" value="" style="edgeStyle=orthogonalEdgeStyle;rounded=0;orthogonalLoop=1;jettySize=auto;html=1;" parent="zMS48Avbv7I0cEuDU5D0-109" source="0Z8y53NUllSxboPvA691-47" target="0Z8y53NUllSxboPvA691-48" edge="1">
          <mxGeometry relative="1" as="geometry" />
        </mxCell>
        <mxCell id="0Z8y53NUllSxboPvA691-47" value="Order confirmed?" style="points=[[0.25,0,0],[0.5,0,0],[0.75,0,0],[1,0.25,0],[1,0.5,0],[1,0.75,0],[0.75,1,0],[0.5,1,0],[0.25,1,0],[0,0.75,0],[0,0.5,0],[0,0.25,0]];shape=mxgraph.bpmn.task;whiteSpace=wrap;rectStyle=rounded;size=10;taskMarker=abstract;rounded=0;shadow=0;glass=0;strokeWidth=1;" parent="zMS48Avbv7I0cEuDU5D0-109" vertex="1">
          <mxGeometry x="1136" y="30" width="120" height="80" as="geometry" />
        </mxCell>
        <mxCell id="0Z8y53NUllSxboPvA691-64" value="Yes" style="edgeStyle=orthogonalEdgeStyle;rounded=0;orthogonalLoop=1;jettySize=auto;html=1;" parent="zMS48Avbv7I0cEuDU5D0-109" source="0Z8y53NUllSxboPvA691-48" target="0Z8y53NUllSxboPvA691-63" edge="1">
          <mxGeometry x="-0.928" y="-15" relative="1" as="geometry">
            <mxPoint y="1" as="offset" />
          </mxGeometry>
        </mxCell>
        <mxCell id="0Z8y53NUllSxboPvA691-68" value="No" style="edgeStyle=orthogonalEdgeStyle;rounded=0;orthogonalLoop=1;jettySize=auto;html=1;entryX=0;entryY=0.5;entryDx=0;entryDy=0;entryPerimeter=0;" parent="zMS48Avbv7I0cEuDU5D0-109" source="0Z8y53NUllSxboPvA691-48" target="0Z8y53NUllSxboPvA691-49" edge="1">
          <mxGeometry x="-0.7647" y="-9" relative="1" as="geometry">
            <mxPoint x="1506" y="70" as="targetPoint" />
            <mxPoint y="1" as="offset" />
          </mxGeometry>
        </mxCell>
        <mxCell id="0Z8y53NUllSxboPvA691-48" value="" style="points=[[0.25,0.25,0],[0.5,0,0],[0.75,0.25,0],[1,0.5,0],[0.75,0.75,0],[0.5,1,0],[0.25,0.75,0],[0,0.5,0]];shape=mxgraph.bpmn.gateway2;html=1;verticalLabelPosition=bottom;labelBackgroundColor=#ffffff;verticalAlign=top;align=center;perimeter=rhombusPerimeter;outlineConnect=0;outline=none;symbol=none;rounded=1;strokeWidth=1;" parent="zMS48Avbv7I0cEuDU5D0-109" vertex="1">
          <mxGeometry x="1376" y="45" width="50" height="50" as="geometry" />
        </mxCell>
        <mxCell id="0Z8y53NUllSxboPvA691-49" value="" style="points=[[0.145,0.145,0],[0.5,0,0],[0.855,0.145,0],[1,0.5,0],[0.855,0.855,0],[0.5,1,0],[0.145,0.855,0],[0,0.5,0]];shape=mxgraph.bpmn.event;html=1;verticalLabelPosition=bottom;labelBackgroundColor=#ffffff;verticalAlign=top;align=center;perimeter=ellipsePerimeter;outlineConnect=0;aspect=fixed;outline=end;symbol=terminate2;rounded=1;strokeWidth=1;" parent="zMS48Avbv7I0cEuDU5D0-109" vertex="1">
          <mxGeometry x="1511" y="45" width="50" height="50" as="geometry" />
        </mxCell>
        <mxCell id="0Z8y53NUllSxboPvA691-59" style="edgeStyle=orthogonalEdgeStyle;rounded=0;orthogonalLoop=1;jettySize=auto;html=1;exitX=1;exitY=0.5;exitDx=0;exitDy=0;exitPerimeter=0;entryX=0.5;entryY=1;entryDx=0;entryDy=0;entryPerimeter=0;" parent="zMS48Avbv7I0cEuDU5D0-109" source="0Z8y53NUllSxboPvA691-60" target="0Z8y53NUllSxboPvA691-47" edge="1">
          <mxGeometry relative="1" as="geometry" />
        </mxCell>
        <mxCell id="0Z8y53NUllSxboPvA691-96" value="" style="edgeStyle=orthogonalEdgeStyle;rounded=0;orthogonalLoop=1;jettySize=auto;html=1;dashed=1;" parent="zMS48Avbv7I0cEuDU5D0-109" source="0Z8y53NUllSxboPvA691-54" target="0Z8y53NUllSxboPvA691-95" edge="1">
          <mxGeometry relative="1" as="geometry" />
        </mxCell>
        <mxCell id="0Z8y53NUllSxboPvA691-54" value="Call endpoint to register a lead" style="points=[[0.25,0,0],[0.5,0,0],[0.75,0,0],[1,0.25,0],[1,0.5,0],[1,0.75,0],[0.75,1,0],[0.5,1,0],[0.25,1,0],[0,0.75,0],[0,0.5,0],[0,0.25,0]];shape=mxgraph.bpmn.task;whiteSpace=wrap;rectStyle=rounded;size=10;taskMarker=abstract;rounded=0;shadow=0;glass=0;strokeWidth=1;" parent="zMS48Avbv7I0cEuDU5D0-109" vertex="1">
          <mxGeometry x="971" y="190" width="120" height="80" as="geometry" />
        </mxCell>
        <mxCell id="0Z8y53NUllSxboPvA691-72" value="" style="edgeStyle=orthogonalEdgeStyle;rounded=0;orthogonalLoop=1;jettySize=auto;html=1;" parent="zMS48Avbv7I0cEuDU5D0-109" source="0Z8y53NUllSxboPvA691-55" target="0Z8y53NUllSxboPvA691-60" edge="1">
          <mxGeometry relative="1" as="geometry" />
        </mxCell>
        <mxCell id="0Z8y53NUllSxboPvA691-116" value="Yes" style="edgeLabel;html=1;align=left;verticalAlign=bottom;resizable=0;points=[];labelPosition=right;verticalLabelPosition=top;" parent="0Z8y53NUllSxboPvA691-72" vertex="1" connectable="0">
          <mxGeometry x="-0.7368" y="-1" relative="1" as="geometry">
            <mxPoint x="5" y="8" as="offset" />
          </mxGeometry>
        </mxCell>
        <mxCell id="0Z8y53NUllSxboPvA691-55" value="" style="points=[[0.25,0.25,0],[0.5,0,0],[0.75,0.25,0],[1,0.5,0],[0.75,0.75,0],[0.5,1,0],[0.25,0.75,0],[0,0.5,0]];shape=mxgraph.bpmn.gateway2;html=1;verticalLabelPosition=bottom;labelBackgroundColor=#ffffff;verticalAlign=top;align=center;perimeter=rhombusPerimeter;outlineConnect=0;outline=none;symbol=none;rounded=1;strokeWidth=1;" parent="zMS48Avbv7I0cEuDU5D0-109" vertex="1">
          <mxGeometry x="1006" y="45" width="50" height="50" as="geometry" />
        </mxCell>
        <mxCell id="0Z8y53NUllSxboPvA691-73" value="" style="edgeStyle=orthogonalEdgeStyle;rounded=0;orthogonalLoop=1;jettySize=auto;html=1;" parent="zMS48Avbv7I0cEuDU5D0-109" source="0Z8y53NUllSxboPvA691-60" target="0Z8y53NUllSxboPvA691-54" edge="1">
          <mxGeometry relative="1" as="geometry" />
        </mxCell>
        <mxCell id="0Z8y53NUllSxboPvA691-60" value="" style="points=[[0.25,0.25,0],[0.5,0,0],[0.75,0.25,0],[1,0.5,0],[0.75,0.75,0],[0.5,1,0],[0.25,0.75,0],[0,0.5,0]];shape=mxgraph.bpmn.gateway2;html=1;verticalLabelPosition=bottom;labelBackgroundColor=#ffffff;verticalAlign=top;align=center;perimeter=rhombusPerimeter;outlineConnect=0;outline=none;symbol=none;gwType=parallel;rounded=1;strokeWidth=1;" parent="zMS48Avbv7I0cEuDU5D0-109" vertex="1">
          <mxGeometry x="1006" y="120" width="50" height="50" as="geometry" />
        </mxCell>
        <mxCell id="0Z8y53NUllSxboPvA691-74" style="edgeStyle=orthogonalEdgeStyle;rounded=0;orthogonalLoop=1;jettySize=auto;html=1;exitX=0.5;exitY=1;exitDx=0;exitDy=0;exitPerimeter=0;entryX=0.5;entryY=0;entryDx=0;entryDy=0;entryPerimeter=0;dashed=1;" parent="zMS48Avbv7I0cEuDU5D0-109" source="0Z8y53NUllSxboPvA691-63" target="0Z8y53NUllSxboPvA691-71" edge="1">
          <mxGeometry relative="1" as="geometry" />
        </mxCell>
        <mxCell id="0Z8y53NUllSxboPvA691-63" value="Orders Broadcast IO" style="points=[[0.145,0.145,0],[0.5,0,0],[0.855,0.145,0],[1,0.5,0],[0.855,0.855,0],[0.5,1,0],[0.145,0.855,0],[0,0.5,0]];shape=mxgraph.bpmn.event;html=1;verticalLabelPosition=bottom;labelBackgroundColor=#ffffff;verticalAlign=top;align=center;perimeter=ellipsePerimeter;outlineConnect=0;aspect=fixed;outline=eventNonint;symbol=message;" parent="zMS48Avbv7I0cEuDU5D0-109" vertex="1">
          <mxGeometry x="1376" y="150" width="50" height="50" as="geometry" />
        </mxCell>
        <mxCell id="0Z8y53NUllSxboPvA691-103" value="" style="edgeStyle=orthogonalEdgeStyle;rounded=0;orthogonalLoop=1;jettySize=auto;html=1;dashed=1;" parent="zMS48Avbv7I0cEuDU5D0-109" source="0Z8y53NUllSxboPvA691-71" target="0Z8y53NUllSxboPvA691-99" edge="1">
          <mxGeometry relative="1" as="geometry" />
        </mxCell>
        <mxCell id="0Z8y53NUllSxboPvA691-71" value="OMS Client" style="points=[[0.145,0.145,0],[0.5,0,0],[0.855,0.145,0],[1,0.5,0],[0.855,0.855,0],[0.5,1,0],[0.145,0.855,0],[0,0.5,0]];shape=mxgraph.bpmn.event;html=1;verticalLabelPosition=bottom;labelBackgroundColor=#ffffff;verticalAlign=top;align=center;perimeter=ellipsePerimeter;outlineConnect=0;aspect=fixed;outline=catching;symbol=message;" parent="zMS48Avbv7I0cEuDU5D0-109" vertex="1">
          <mxGeometry x="1375" y="495" width="50" height="50" as="geometry" />
        </mxCell>
        <mxCell id="0Z8y53NUllSxboPvA691-94" value="" style="edgeStyle=orthogonalEdgeStyle;rounded=0;orthogonalLoop=1;jettySize=auto;html=1;exitX=0.5;exitY=1;exitDx=0;exitDy=0;exitPerimeter=0;" parent="zMS48Avbv7I0cEuDU5D0-109" source="0Z8y53NUllSxboPvA691-75" target="0Z8y53NUllSxboPvA691-80" edge="1">
          <mxGeometry relative="1" as="geometry">
            <mxPoint x="405" y="631.5" as="sourcePoint" />
          </mxGeometry>
        </mxCell>
        <mxCell id="0Z8y53NUllSxboPvA691-75" value="Call VTEX endpoints to create the custom products list" style="points=[[0.25,0,0],[0.5,0,0],[0.75,0,0],[1,0.25,0],[1,0.5,0],[1,0.75,0],[0.75,1,0],[0.5,1,0],[0.25,1,0],[0,0.75,0],[0,0.5,0],[0,0.25,0]];shape=mxgraph.bpmn.task;whiteSpace=wrap;rectStyle=rounded;size=10;taskMarker=abstract;rounded=0;shadow=0;glass=0;strokeWidth=1;" parent="zMS48Avbv7I0cEuDU5D0-109" vertex="1">
          <mxGeometry x="345" y="491.5" width="120" height="80" as="geometry" />
        </mxCell>
        <mxCell id="0Z8y53NUllSxboPvA691-88" value="" style="edgeStyle=orthogonalEdgeStyle;rounded=0;orthogonalLoop=1;jettySize=auto;html=1;dashed=1;" parent="zMS48Avbv7I0cEuDU5D0-109" source="0Z8y53NUllSxboPvA691-80" target="0Z8y53NUllSxboPvA691-81" edge="1">
          <mxGeometry relative="1" as="geometry">
            <mxPoint x="300.5" y="792" as="targetPoint" />
          </mxGeometry>
        </mxCell>
        <mxCell id="0Z8y53NUllSxboPvA691-89" style="edgeStyle=orthogonalEdgeStyle;rounded=0;orthogonalLoop=1;jettySize=auto;html=1;exitX=0.25;exitY=0.75;exitDx=0;exitDy=0;exitPerimeter=0;entryX=0.75;entryY=0;entryDx=0;entryDy=0;entryPerimeter=0;dashed=1;" parent="zMS48Avbv7I0cEuDU5D0-109" source="0Z8y53NUllSxboPvA691-80" target="0Z8y53NUllSxboPvA691-82" edge="1">
          <mxGeometry relative="1" as="geometry" />
        </mxCell>
        <mxCell id="0Z8y53NUllSxboPvA691-91" value="" style="edgeStyle=orthogonalEdgeStyle;rounded=0;orthogonalLoop=1;jettySize=auto;html=1;dashed=1;" parent="zMS48Avbv7I0cEuDU5D0-109" source="0Z8y53NUllSxboPvA691-80" target="0Z8y53NUllSxboPvA691-83" edge="1">
          <mxGeometry relative="1" as="geometry">
            <mxPoint x="405.5" y="897" as="targetPoint" />
          </mxGeometry>
        </mxCell>
        <mxCell id="0Z8y53NUllSxboPvA691-92" style="edgeStyle=orthogonalEdgeStyle;rounded=0;orthogonalLoop=1;jettySize=auto;html=1;exitX=0.75;exitY=0.75;exitDx=0;exitDy=0;exitPerimeter=0;entryX=0.25;entryY=0;entryDx=0;entryDy=0;entryPerimeter=0;dashed=1;" parent="zMS48Avbv7I0cEuDU5D0-109" source="0Z8y53NUllSxboPvA691-80" target="0Z8y53NUllSxboPvA691-84" edge="1">
          <mxGeometry relative="1" as="geometry" />
        </mxCell>
        <mxCell id="0Z8y53NUllSxboPvA691-93" style="edgeStyle=orthogonalEdgeStyle;rounded=0;orthogonalLoop=1;jettySize=auto;html=1;exitX=1;exitY=0.5;exitDx=0;exitDy=0;exitPerimeter=0;entryX=0.5;entryY=0;entryDx=0;entryDy=0;entryPerimeter=0;dashed=1;" parent="zMS48Avbv7I0cEuDU5D0-109" source="0Z8y53NUllSxboPvA691-80" target="0Z8y53NUllSxboPvA691-85" edge="1">
          <mxGeometry relative="1" as="geometry" />
        </mxCell>
        <mxCell id="0Z8y53NUllSxboPvA691-80" value="" style="points=[[0.25,0.25,0],[0.5,0,0],[0.75,0.25,0],[1,0.5,0],[0.75,0.75,0],[0.5,1,0],[0.25,0.75,0],[0,0.5,0]];shape=mxgraph.bpmn.gateway2;html=1;verticalLabelPosition=bottom;labelBackgroundColor=#ffffff;verticalAlign=top;align=center;perimeter=rhombusPerimeter;outlineConnect=0;outline=none;symbol=none;gwType=complex;" parent="zMS48Avbv7I0cEuDU5D0-109" vertex="1">
          <mxGeometry x="380" y="630" width="50" height="50" as="geometry" />
        </mxCell>
        <mxCell id="0Z8y53NUllSxboPvA691-81" value="/api/catalog_system/pvt/products/GetProductAndSkuIds?_from={from}_to={to}" style="points=[[0.25,0,0],[0.5,0,0],[0.75,0,0],[1,0.25,0],[1,0.5,0],[1,0.75,0],[0.75,1,0],[0.5,1,0],[0.25,1,0],[0,0.75,0],[0,0.5,0],[0,0.25,0]];shape=mxgraph.bpmn.task;whiteSpace=wrap;rectStyle=rounded;size=10;taskMarker=abstract;rounded=0;shadow=0;glass=0;strokeWidth=1;" parent="zMS48Avbv7I0cEuDU5D0-109" vertex="1">
          <mxGeometry x="50.5" y="867" width="185" height="80" as="geometry" />
        </mxCell>
        <mxCell id="0Z8y53NUllSxboPvA691-82" value="/api/catalog/pvt/product/{productId}" style="points=[[0.25,0,0],[0.5,0,0],[0.75,0,0],[1,0.25,0],[1,0.5,0],[1,0.75,0],[0.75,1,0],[0.5,1,0],[0.25,1,0],[0,0.75,0],[0,0.5,0],[0,0.25,0]];shape=mxgraph.bpmn.task;whiteSpace=wrap;rectStyle=rounded;size=10;taskMarker=abstract;rounded=0;shadow=0;glass=0;strokeWidth=1;" parent="zMS48Avbv7I0cEuDU5D0-109" vertex="1">
          <mxGeometry x="110.5" y="967" width="185" height="80" as="geometry" />
        </mxCell>
        <mxCell id="0Z8y53NUllSxboPvA691-83" value="/api/catalog_system/pvt/products/{productId}/specification" style="points=[[0.25,0,0],[0.5,0,0],[0.75,0,0],[1,0.25,0],[1,0.5,0],[1,0.75,0],[0.75,1,0],[0.5,1,0],[0.25,1,0],[0,0.75,0],[0,0.5,0],[0,0.25,0]];shape=mxgraph.bpmn.task;whiteSpace=wrap;rectStyle=rounded;size=10;taskMarker=abstract;rounded=0;shadow=0;glass=0;strokeWidth=1;" parent="zMS48Avbv7I0cEuDU5D0-109" vertex="1">
          <mxGeometry x="313" y="967" width="185" height="80" as="geometry" />
        </mxCell>
        <mxCell id="0Z8y53NUllSxboPvA691-84" value="/api/catalog_system/pub/specification/fieldGet/{fieldId}" style="points=[[0.25,0,0],[0.5,0,0],[0.75,0,0],[1,0.25,0],[1,0.5,0],[1,0.75,0],[0.75,1,0],[0.5,1,0],[0.25,1,0],[0,0.75,0],[0,0.5,0],[0,0.25,0]];shape=mxgraph.bpmn.task;whiteSpace=wrap;rectStyle=rounded;size=10;taskMarker=abstract;rounded=0;shadow=0;glass=0;strokeWidth=1;" parent="zMS48Avbv7I0cEuDU5D0-109" vertex="1">
          <mxGeometry x="510.5" y="967" width="185" height="80" as="geometry" />
        </mxCell>
        <mxCell id="0Z8y53NUllSxboPvA691-85" value="/api/catalog_system/pub/products/variations/{productId}" style="points=[[0.25,0,0],[0.5,0,0],[0.75,0,0],[1,0.25,0],[1,0.5,0],[1,0.75,0],[0.75,1,0],[0.5,1,0],[0.25,1,0],[0,0.75,0],[0,0.5,0],[0,0.25,0]];shape=mxgraph.bpmn.task;whiteSpace=wrap;rectStyle=rounded;size=10;taskMarker=abstract;rounded=0;shadow=0;glass=0;strokeWidth=1;" parent="zMS48Avbv7I0cEuDU5D0-109" vertex="1">
          <mxGeometry x="570.5" y="857" width="185" height="80" as="geometry" />
        </mxCell>
        <mxCell id="0Z8y53NUllSxboPvA691-111" style="edgeStyle=orthogonalEdgeStyle;rounded=0;orthogonalLoop=1;jettySize=auto;html=1;exitX=0.5;exitY=1;exitDx=0;exitDy=0;exitPerimeter=0;dashed=1;" parent="zMS48Avbv7I0cEuDU5D0-109" source="0Z8y53NUllSxboPvA691-95" target="0Z8y53NUllSxboPvA691-97" edge="1">
          <mxGeometry relative="1" as="geometry" />
        </mxCell>
        <mxCell id="0Z8y53NUllSxboPvA691-95" value="Call AWS Gateway endpoint to register a lead" style="points=[[0.25,0,0],[0.5,0,0],[0.75,0,0],[1,0.25,0],[1,0.5,0],[1,0.75,0],[0.75,1,0],[0.5,1,0],[0.25,1,0],[0,0.75,0],[0,0.5,0],[0,0.25,0]];shape=mxgraph.bpmn.task;whiteSpace=wrap;rectStyle=rounded;size=10;taskMarker=abstract;rounded=0;shadow=0;glass=0;strokeWidth=1;" parent="zMS48Avbv7I0cEuDU5D0-109" vertex="1">
          <mxGeometry x="970" y="480" width="120" height="80" as="geometry" />
        </mxCell>
        <mxCell id="0Z8y53NUllSxboPvA691-97" value="(POST) /lead/{email}" style="points=[[0.25,0,0],[0.5,0,0],[0.75,0,0],[1,0.25,0],[1,0.5,0],[1,0.75,0],[0.75,1,0],[0.5,1,0],[0.25,1,0],[0,0.75,0],[0,0.5,0],[0,0.25,0]];shape=mxgraph.bpmn.task;whiteSpace=wrap;rectStyle=rounded;size=10;taskMarker=abstract;rounded=0;shadow=0;glass=0;strokeWidth=1;" parent="zMS48Avbv7I0cEuDU5D0-109" vertex="1">
          <mxGeometry x="885" y="750" width="185" height="80" as="geometry" />
        </mxCell>
        <mxCell id="0Z8y53NUllSxboPvA691-98" value="AWS Gateway API" style="text;html=1;resizable=0;autosize=1;align=center;verticalAlign=middle;points=[];fillColor=none;strokeColor=none;rounded=0;shadow=0;glass=0;rotation=270;strokeWidth=1;fontStyle=1" parent="zMS48Avbv7I0cEuDU5D0-109" vertex="1">
          <mxGeometry x="790" y="887" width="120" height="20" as="geometry" />
        </mxCell>
        <mxCell id="0Z8y53NUllSxboPvA691-104" value="" style="edgeStyle=orthogonalEdgeStyle;rounded=0;orthogonalLoop=1;jettySize=auto;html=1;exitX=0.5;exitY=1;exitDx=0;exitDy=0;exitPerimeter=0;" parent="zMS48Avbv7I0cEuDU5D0-109" source="0Z8y53NUllSxboPvA691-99" target="0Z8y53NUllSxboPvA691-100" edge="1">
          <mxGeometry relative="1" as="geometry">
            <mxPoint x="1275" y="620" as="sourcePoint" />
          </mxGeometry>
        </mxCell>
        <mxCell id="0Z8y53NUllSxboPvA691-99" value="Verify if the email is lead and if is &quot;prospect&quot;" style="points=[[0.25,0,0],[0.5,0,0],[0.75,0,0],[1,0.25,0],[1,0.5,0],[1,0.75,0],[0.75,1,0],[0.5,1,0],[0.25,1,0],[0,0.75,0],[0,0.5,0],[0,0.25,0]];shape=mxgraph.bpmn.task;whiteSpace=wrap;rectStyle=rounded;size=10;taskMarker=abstract;rounded=0;shadow=0;glass=0;strokeWidth=1;" parent="zMS48Avbv7I0cEuDU5D0-109" vertex="1">
          <mxGeometry x="1215" y="480" width="120" height="80" as="geometry" />
        </mxCell>
        <mxCell id="0Z8y53NUllSxboPvA691-107" value="Yes" style="edgeStyle=orthogonalEdgeStyle;rounded=0;orthogonalLoop=1;jettySize=auto;html=1;entryX=1;entryY=0.5;entryDx=0;entryDy=0;entryPerimeter=0;" parent="zMS48Avbv7I0cEuDU5D0-109" source="0Z8y53NUllSxboPvA691-100" target="0Z8y53NUllSxboPvA691-105" edge="1">
          <mxGeometry x="-0.4286" y="-15" relative="1" as="geometry">
            <mxPoint x="1170" y="665" as="targetPoint" />
            <mxPoint as="offset" />
          </mxGeometry>
        </mxCell>
        <mxCell id="0Z8y53NUllSxboPvA691-100" value="" style="points=[[0.25,0.25,0],[0.5,0,0],[0.75,0.25,0],[1,0.5,0],[0.75,0.75,0],[0.5,1,0],[0.25,0.75,0],[0,0.5,0]];shape=mxgraph.bpmn.gateway2;html=1;verticalLabelPosition=bottom;labelBackgroundColor=#ffffff;verticalAlign=top;align=center;perimeter=rhombusPerimeter;outlineConnect=0;outline=none;symbol=none;rounded=1;strokeWidth=1;" parent="zMS48Avbv7I0cEuDU5D0-109" vertex="1">
          <mxGeometry x="1250" y="640" width="50" height="50" as="geometry" />
        </mxCell>
        <mxCell id="0Z8y53NUllSxboPvA691-101" value="" style="points=[[0.145,0.145,0],[0.5,0,0],[0.855,0.145,0],[1,0.5,0],[0.855,0.855,0],[0.5,1,0],[0.145,0.855,0],[0,0.5,0]];shape=mxgraph.bpmn.event;html=1;verticalLabelPosition=bottom;labelBackgroundColor=#ffffff;verticalAlign=top;align=center;perimeter=ellipsePerimeter;outlineConnect=0;aspect=fixed;outline=end;symbol=message;" parent="zMS48Avbv7I0cEuDU5D0-109" vertex="1">
          <mxGeometry x="1375" y="640" width="50" height="50" as="geometry" />
        </mxCell>
        <mxCell id="0Z8y53NUllSxboPvA691-102" value="No" style="edgeStyle=orthogonalEdgeStyle;rounded=0;orthogonalLoop=1;jettySize=auto;html=1;" parent="zMS48Avbv7I0cEuDU5D0-109" source="0Z8y53NUllSxboPvA691-100" target="0Z8y53NUllSxboPvA691-101" edge="1">
          <mxGeometry x="-0.6" y="15" relative="1" as="geometry">
            <mxPoint as="offset" />
          </mxGeometry>
        </mxCell>
        <mxCell id="0Z8y53NUllSxboPvA691-110" value="" style="edgeStyle=orthogonalEdgeStyle;rounded=0;orthogonalLoop=1;jettySize=auto;html=1;entryX=0.5;entryY=0;entryDx=0;entryDy=0;entryPerimeter=0;dashed=1;" parent="zMS48Avbv7I0cEuDU5D0-109" source="0Z8y53NUllSxboPvA691-105" target="0Z8y53NUllSxboPvA691-108" edge="1">
          <mxGeometry relative="1" as="geometry">
            <mxPoint x="865" y="785" as="targetPoint" />
          </mxGeometry>
        </mxCell>
        <mxCell id="0Z8y53NUllSxboPvA691-105" value="Call AWS Gateway endpoint change to &quot;customer&quot;" style="points=[[0.25,0,0],[0.5,0,0],[0.75,0,0],[1,0.25,0],[1,0.5,0],[1,0.75,0],[0.75,1,0],[0.5,1,0],[0.25,1,0],[0,0.75,0],[0,0.5,0],[0,0.25,0]];shape=mxgraph.bpmn.task;whiteSpace=wrap;rectStyle=rounded;size=10;taskMarker=abstract;rounded=0;shadow=0;glass=0;strokeWidth=1;" parent="zMS48Avbv7I0cEuDU5D0-109" vertex="1">
          <mxGeometry x="1077.5" y="625" width="120" height="80" as="geometry" />
        </mxCell>
        <mxCell id="0Z8y53NUllSxboPvA691-108" value="/api/catalog_system/pub/products/variations/{productId}" style="points=[[0.25,0,0],[0.5,0,0],[0.75,0,0],[1,0.25,0],[1,0.5,0],[1,0.75,0],[0.75,1,0],[0.5,1,0],[0.25,1,0],[0,0.75,0],[0,0.5,0],[0,0.25,0]];shape=mxgraph.bpmn.task;whiteSpace=wrap;rectStyle=rounded;size=10;taskMarker=abstract;rounded=0;shadow=0;glass=0;strokeWidth=1;" parent="zMS48Avbv7I0cEuDU5D0-109" vertex="1">
          <mxGeometry x="1045" y="867" width="185" height="80" as="geometry" />
        </mxCell>
        <mxCell id="0Z8y53NUllSxboPvA691-112" value="" style="line;strokeWidth=1;html=1;rounded=0;shadow=0;glass=0;" parent="zMS48Avbv7I0cEuDU5D0-109" vertex="1">
          <mxGeometry x="23" y="720" width="1567" height="10" as="geometry" />
        </mxCell>
        <mxCell id="0Z8y53NUllSxboPvA691-113" value="VTEX IO Developer API" style="text;html=1;resizable=0;autosize=1;align=center;verticalAlign=middle;points=[];fillColor=none;strokeColor=none;rounded=0;shadow=0;glass=0;rotation=270;strokeWidth=1;fontStyle=1" parent="zMS48Avbv7I0cEuDU5D0-109" vertex="1">
          <mxGeometry x="-40" y="887" width="150" height="20" as="geometry" />
        </mxCell>
        <mxCell id="0Z8y53NUllSxboPvA691-114" value="ACCT Group 19 API" style="text;html=1;resizable=0;autosize=1;align=center;verticalAlign=middle;points=[];fillColor=none;strokeColor=none;rounded=0;shadow=0;glass=0;rotation=270;strokeWidth=1;fontStyle=1" parent="zMS48Avbv7I0cEuDU5D0-109" vertex="1">
          <mxGeometry x="-30" y="571.5" width="130" height="20" as="geometry" />
        </mxCell>
        <mxCell id="0Z8y53NUllSxboPvA691-117" value="" style="line;strokeWidth=1;html=1;rounded=0;shadow=0;glass=0;rotation=90;" parent="zMS48Avbv7I0cEuDU5D0-109" vertex="1">
          <mxGeometry x="657.31" y="888.07" width="339.62" height="10" as="geometry" />
        </mxCell>
        <mxCell id="6_kuwnHvt6yvVzqCmMgp-1" value="" style="line;strokeWidth=1;html=1;rounded=0;shadow=0;glass=0;" vertex="1" parent="zMS48Avbv7I0cEuDU5D0-109">
          <mxGeometry x="23" y="280" width="1567" height="10" as="geometry" />
        </mxCell>
      </root>
    </mxGraphModel>
  </diagram>
</mxfile>
